<svg version="1.1" id="Layer_1" xmlns="http://www.w3.org/2000/svg" xmlns:xlink="http://www.w3.org/1999/xlink" x="0px" y="0px"
	 width="100%" viewBox="0 0 257 257" enable-background="new 0 0 257 257" xml:space="preserve">
<path fill="#020102" opacity="1.000000" stroke="none" 
	d="
M1.000000,149.000000 
	C1.000000,147.933487 1.000000,146.866959 1.424919,145.486221 
	C8.235245,144.563309 14.633889,144.059708 20.995022,143.258301 
	C22.285143,143.095779 23.433695,141.809494 24.910778,140.942123 
	C25.147694,139.904373 25.121340,138.965790 25.057014,137.603058 
	C25.262602,135.800125 25.506163,134.421341 25.972898,132.960754 
	C26.168440,132.263229 26.140806,131.647491 26.082561,130.636658 
	C30.675270,119.987457 33.666286,108.483765 40.323990,99.787102 
	C49.181583,88.216827 55.813763,76.589729 56.518661,61.938831 
	C56.558418,61.112568 56.752396,60.292160 56.895466,59.472668 
	C59.277607,45.827873 62.296654,32.400265 69.897034,20.489672 
	C74.466560,13.328748 80.261345,11.635624 87.170944,16.602001 
	C92.515076,20.443167 97.434143,25.073460 101.821838,29.995127 
	C106.783661,35.560799 110.846817,41.919262 115.526466,47.751892 
	C116.472229,48.930679 118.382469,49.828896 119.923103,49.957523 
	C130.325623,50.826042 140.744904,51.515472 151.168503,52.084675 
	C152.609268,52.163353 154.523758,51.690586 155.501740,50.737316 
	C160.132812,46.223232 164.099930,40.941086 169.088791,36.902534 
	C175.604355,31.628101 182.462326,26.470057 189.918228,22.759382 
	C196.051849,19.706791 200.209793,21.959709 203.555542,27.977842 
	C205.395874,31.288118 207.356491,34.856800 207.889328,38.509357 
	C209.684631,50.815834 211.519928,63.183548 212.060165,75.583595 
	C212.451462,84.565369 213.694427,92.591400 220.511017,99.005684 
	C221.560944,99.993637 222.159637,101.489830 222.873489,102.801865 
	C230.749695,117.278351 235.439651,132.453354 233.345886,149.215652 
	C233.203278,150.357407 234.432465,152.470963 235.474304,152.831924 
	C242.917252,155.410675 250.477234,157.651642 258.000000,160.000000 
	C258.000000,160.750000 258.000000,161.500000 257.688416,162.937073 
	C249.169373,160.708588 240.961945,157.793045 233.219879,155.042816 
	C230.457932,160.880508 228.071533,165.924438 225.420670,171.013702 
	C225.310715,171.742554 225.465210,172.426041 225.932419,173.264923 
	C235.676620,180.463348 243.362579,189.121857 249.570709,199.069382 
	C250.317276,200.265610 249.894058,202.191895 250.013031,203.779816 
	C248.693848,202.830368 246.912674,202.164246 246.128983,200.886383 
	C240.150620,191.138412 232.274582,183.201462 224.592651,176.851364 
	C215.439590,184.159821 207.293198,191.841324 198.004608,197.717316 
	C190.255280,202.619522 181.167282,205.405579 172.264084,209.077789 
	C169.714630,209.231979 167.548889,209.297195 165.435699,209.664612 
	C148.046021,212.688187 130.564072,214.220474 112.898521,213.282135 
	C106.139786,212.923141 99.369530,212.780853 92.177505,212.395660 
	C67.343735,207.443909 45.314087,198.551620 30.784168,176.131989 
	C27.674389,178.649841 24.903522,180.955887 22.065199,183.175690 
	C18.419319,186.027115 14.719279,188.809280 11.044302,191.270935 
	C11.045965,189.986374 11.045894,189.052139 11.193857,187.814743 
	C17.052511,182.542679 22.763134,177.573792 28.026411,172.994141 
	C26.388903,164.536179 24.773777,156.193832 23.003181,147.048462 
	C15.994197,147.670120 8.497098,148.335052 1.000000,149.000000 
M110.056725,152.464523 
	C114.859726,143.435852 117.217232,133.796814 116.311844,123.612701 
	C115.279587,112.001587 111.456184,101.541115 102.120697,93.783020 
	C89.579666,83.361015 70.620522,84.911819 59.429417,102.938148 
	C49.111877,119.557350 48.736725,137.211044 58.725658,154.595261 
	C64.656189,164.916458 76.158638,170.916580 87.730698,168.963593 
	C97.522743,167.311005 104.408714,161.227722 110.056725,152.464523 
M150.016281,146.402664 
	C152.395279,151.311249 154.024689,156.802673 157.299667,161.014572 
	C165.716507,171.839310 178.864914,177.096237 192.093292,169.984268 
	C214.261353,158.066071 220.424286,123.000008 203.560349,102.453598 
	C190.005707,85.939102 171.166351,87.693008 158.676941,102.872437 
	C148.566727,115.160233 145.566910,129.865601 150.016281,146.402664 
z"/>
<path fill="#B100FE" opacity="1.000000" stroke="none" 
	d="
M258.000000,159.531342 
	C250.477234,157.651642 242.917252,155.410675 235.474304,152.831924 
	C234.432465,152.470963 233.203278,150.357407 233.345886,149.215652 
	C235.439651,132.453354 230.749695,117.278351 222.873489,102.801865 
	C222.159637,101.489830 221.560944,99.993637 220.511017,99.005684 
	C213.694427,92.591400 212.451462,84.565369 212.060165,75.583595 
	C211.519928,63.183548 209.684631,50.815834 207.889328,38.509357 
	C207.356491,34.856800 205.395874,31.288118 203.555542,27.977842 
	C200.209793,21.959709 196.051849,19.706791 189.918228,22.759382 
	C182.462326,26.470057 175.604355,31.628101 169.088791,36.902534 
	C164.099930,40.941086 160.132812,46.223232 155.501740,50.737316 
	C154.523758,51.690586 152.609268,52.163353 151.168503,52.084675 
	C140.744904,51.515472 130.325623,50.826042 119.923103,49.957523 
	C118.382469,49.828896 116.472229,48.930679 115.526466,47.751892 
	C110.846817,41.919262 106.783661,35.560799 101.821838,29.995127 
	C97.434143,25.073460 92.515076,20.443167 87.170944,16.602001 
	C80.261345,11.635624 74.466560,13.328748 69.897034,20.489672 
	C62.296654,32.400265 59.277607,45.827873 56.895466,59.472668 
	C56.752396,60.292160 56.558418,61.112568 56.518661,61.938831 
	C55.813763,76.589729 49.181583,88.216827 40.323990,99.787102 
	C33.666286,108.483765 30.675270,119.987457 25.917213,130.855392 
	C25.771559,131.993668 25.760643,132.518112 25.749725,133.042542 
	C25.506163,134.421341 25.262602,135.800125 24.894650,137.874664 
	C24.729340,139.394028 24.688423,140.217651 24.647509,141.041275 
	C23.433695,141.809494 22.285143,143.095779 20.995022,143.258301 
	C14.633889,144.059708 8.235245,144.563309 1.424919,145.085999 
	C1.000000,97.037537 1.000000,49.075066 1.000000,1.056301 
	C86.562111,1.056301 172.124268,1.056301 258.000000,1.056301 
	C258.000000,53.687145 258.000000,106.374916 258.000000,159.531342 
z"/>
<path fill="#B100FD" opacity="1.000000" stroke="none" 
	d="
M172.672150,209.128845 
	C181.167282,205.405579 190.255280,202.619522 198.004608,197.717316 
	C207.293198,191.841324 215.439590,184.159821 224.592651,176.851364 
	C232.274582,183.201462 240.150620,191.138412 246.128983,200.886383 
	C246.912674,202.164246 248.693848,202.830368 250.013031,203.779816 
	C249.894058,202.191895 250.317276,200.265610 249.570709,199.069382 
	C243.362579,189.121857 235.676620,180.463348 225.918015,172.907501 
	C225.622299,171.919266 225.653717,171.443817 225.685120,170.968369 
	C228.071533,165.924438 230.457932,160.880508 233.219879,155.042816 
	C240.961945,157.793045 249.169373,160.708588 257.688416,163.312073 
	C258.000000,194.586380 258.000000,226.172775 258.000000,258.000000 
	C232.312943,258.000000 206.625122,258.000000 180.479279,257.612427 
	C180.726791,253.516891 182.574158,249.591034 181.916183,246.143326 
	C180.189667,237.096558 177.371094,228.258209 175.108551,218.985397 
	C174.377014,215.465607 173.524582,212.297226 172.672150,209.128845 
z"/>
<path fill="#B000FC" opacity="1.000000" stroke="none" 
	d="
M1.000000,149.468658 
	C8.497098,148.335052 15.994197,147.670120 23.003181,147.048462 
	C24.773777,156.193832 26.388903,164.536179 28.026411,172.994141 
	C22.763134,177.573792 17.052511,182.542679 10.934634,187.902817 
	C10.699109,189.403137 10.870840,190.512207 11.042569,191.621277 
	C14.719279,188.809280 18.419319,186.027115 22.065199,183.175690 
	C24.903522,180.955887 27.674389,178.649841 30.784168,176.131989 
	C45.314087,198.551620 67.343735,207.443909 91.983757,212.716522 
	C90.839256,217.249039 89.007019,221.300690 91.611938,225.957626 
	C90.884422,234.471512 90.332413,242.540787 89.739563,251.206985 
	C87.449242,252.014313 84.521957,253.169434 81.519768,254.076691 
	C76.510712,255.590439 71.936905,254.920166 68.431786,250.675476 
	C65.052818,246.583557 66.025925,242.181259 68.252113,238.090240 
	C70.782043,233.440994 73.949806,229.139771 76.498871,224.499695 
	C78.618896,220.640594 79.057137,216.516098 75.926636,212.835632 
	C72.671822,209.009048 68.612747,207.026489 63.532513,208.597687 
	C56.134060,210.885849 50.980820,215.894608 47.650806,222.716232 
	C41.814964,234.671066 42.648342,246.464066 49.000000,258.000000 
	C33.044708,258.000000 17.089420,258.000000 1.000000,258.000000 
	C1.000000,221.979202 1.000000,185.958267 1.000000,149.468658 
z"/>
<path fill="#020003" opacity="1.000000" stroke="none" 
	d="
M49.468658,258.000000 
	C42.648342,246.464066 41.814964,234.671066 47.650806,222.716232 
	C50.980820,215.894608 56.134060,210.885849 63.532513,208.597687 
	C68.612747,207.026489 72.671822,209.009048 75.926636,212.835632 
	C79.057137,216.516098 78.618896,220.640594 76.498871,224.499695 
	C73.949806,229.139771 70.782043,233.440994 68.252113,238.090240 
	C66.025925,242.181259 65.052818,246.583557 68.431786,250.675476 
	C71.936905,254.920166 76.510712,255.590439 81.519768,254.076691 
	C84.521957,253.169434 87.449242,252.014313 89.739563,251.206985 
	C90.332413,242.540787 90.884422,234.471512 91.984779,226.036316 
	C110.753128,228.924576 129.084183,228.525040 148.543671,226.578629 
	C147.650909,237.606766 146.825455,247.803375 146.000000,258.000000 
	C113.979103,258.000000 81.958214,258.000000 49.468658,258.000000 
z"/>
<path fill="#E9282C" opacity="1.000000" stroke="none" 
	d="
M146.468628,258.000000 
	C146.825455,247.803375 147.650909,237.606766 148.543671,226.578629 
	C129.084183,228.525040 110.753128,228.924576 92.160286,225.591705 
	C89.007019,221.300690 90.839256,217.249039 92.410774,212.860687 
	C99.369530,212.780853 106.139786,212.923141 112.898521,213.282135 
	C130.564072,214.220474 148.046021,212.688187 165.435699,209.664612 
	C167.548889,209.297195 169.714630,209.231979 172.264084,209.077774 
	C173.524582,212.297226 174.377014,215.465607 174.790588,219.102997 
	C171.016418,220.918549 167.681091,222.265091 164.192764,223.673386 
	C169.338577,234.638855 171.146912,246.077606 170.000000,258.000000 
	C162.312424,258.000000 154.624832,258.000000 146.468628,258.000000 
z"/>
<path fill="#080207" opacity="1.000000" stroke="none" 
	d="
M170.454102,258.000000 
	C171.146912,246.077606 169.338577,234.638855 164.192764,223.673386 
	C167.681091,222.265091 171.016418,220.918549 174.669708,219.454407 
	C177.371094,228.258209 180.189667,237.096558 181.916183,246.143326 
	C182.574158,249.591034 180.726791,253.516891 180.010620,257.612427 
	C176.969406,258.000000 173.938812,258.000000 170.454102,258.000000 
z"/>
<path fill="#F9F9F9" opacity="1.000000" stroke="none" 
	d="
M109.835907,152.755768 
	C104.408714,161.227722 97.522743,167.311005 87.730698,168.963593 
	C76.158638,170.916580 64.656189,164.916458 58.725658,154.595261 
	C48.736725,137.211044 49.111877,119.557350 59.429417,102.938148 
	C70.620522,84.911819 89.579666,83.361015 102.120697,93.783020 
	C111.456184,101.541115 115.279587,112.001587 116.311844,123.612701 
	C117.217232,133.796814 114.859726,143.435852 109.835907,152.755768 
M96.892929,153.804245 
	C98.460274,152.612381 100.392082,151.696411 101.536560,150.184464 
	C109.739159,139.348129 110.453598,120.827599 103.293747,109.202896 
	C96.971458,98.938087 85.953484,99.056389 80.246857,109.735924 
	C73.645454,122.089951 73.192474,134.709076 79.751053,147.379150 
	C83.351089,154.333847 88.809250,156.686401 96.892929,153.804245 
z"/>
<path fill="#F9F9F9" opacity="1.000000" stroke="none" 
	d="
M149.929504,146.003326 
	C145.566910,129.865601 148.566727,115.160233 158.676941,102.872437 
	C171.166351,87.693008 190.005707,85.939102 203.560349,102.453598 
	C220.424286,123.000008 214.261353,158.066071 192.093292,169.984268 
	C178.864914,177.096237 165.716507,171.839310 157.299667,161.014572 
	C154.024689,156.802673 152.395279,151.311249 149.929504,146.003326 
M189.625778,136.754807 
	C190.822372,126.126472 190.739182,115.748466 183.012756,107.153694 
	C177.463409,100.980637 171.151093,100.848190 165.303604,106.579628 
	C155.046066,116.633606 153.900131,139.970810 163.124374,150.961029 
	C168.514084,157.382599 175.457428,158.576752 181.216721,152.535416 
	C184.999619,148.567245 186.720566,142.633362 189.625778,136.754807 
z"/>
<path fill="#0F0616" opacity="1.000000" stroke="none" 
	d="
M24.910778,140.942123 
	C24.688423,140.217651 24.729340,139.394028 24.932621,138.298798 
	C25.121340,138.965790 25.147694,139.904373 24.910778,140.942123 
z"/>
<path fill="#0F0616" opacity="1.000000" stroke="none" 
	d="
M11.044303,191.270935 
	C10.870840,190.512207 10.699109,189.403137 10.786600,188.205994 
	C11.045894,189.052139 11.045965,189.986374 11.044303,191.270935 
z"/>
<path fill="#0F0616" opacity="1.000000" stroke="none" 
	d="
M25.972900,132.960754 
	C25.760643,132.518112 25.771559,131.993668 25.947824,131.250488 
	C26.140806,131.647491 26.168440,132.263229 25.972900,132.960754 
z"/>
<path fill="#11061A" opacity="1.000000" stroke="none" 
	d="
M225.420654,171.013702 
	C225.653717,171.443817 225.622299,171.919266 225.605301,172.752136 
	C225.465210,172.426041 225.310715,171.742554 225.420654,171.013702 
z"/>
<path fill="#060606" opacity="1.000000" stroke="none" 
	d="
M96.534843,153.975632 
	C88.809250,156.686401 83.351089,154.333847 79.751053,147.379150 
	C73.192474,134.709076 73.645454,122.089951 80.246857,109.735924 
	C85.953484,99.056389 96.971458,98.938087 103.293747,109.202896 
	C110.453598,120.827599 109.739159,139.348129 101.536560,150.184464 
	C100.392082,151.696411 98.460274,152.612381 96.534843,153.975632 
M85.296303,109.288826 
	C85.162102,110.268234 84.869705,111.256248 84.922470,112.225479 
	C85.101944,115.521935 85.009270,119.504959 89.331741,119.891563 
	C93.964912,120.305969 94.455666,116.127617 95.314919,112.787277 
	C95.475739,112.162102 95.641617,111.334045 95.370384,110.836761 
	C94.103279,108.513649 92.683861,106.273613 91.318886,104.003891 
	C89.436813,105.523941 87.554741,107.043999 85.296303,109.288826 
z"/>
<path fill="#060606" opacity="1.000000" stroke="none" 
	d="
M189.495346,137.167297 
	C186.720566,142.633362 184.999619,148.567245 181.216721,152.535416 
	C175.457428,158.576752 168.514084,157.382599 163.124374,150.961029 
	C153.900131,139.970810 155.046066,116.633606 165.303604,106.579628 
	C171.151093,100.848190 177.463409,100.980637 183.012756,107.153694 
	C190.739182,115.748466 190.822372,126.126472 189.495346,137.167297 
M169.257034,120.201935 
	C173.781921,122.107506 175.710388,119.393188 176.921036,115.742714 
	C178.332077,111.488007 176.854660,105.836365 173.867004,105.298065 
	C172.263519,105.009163 169.543457,106.127121 168.671585,107.477936 
	C166.185226,111.330139 166.248306,115.604774 169.257034,120.201935 
z"/>
<path fill="#F2F2F2" opacity="1.000000" stroke="none" 
	d="
M85.484489,108.926437 
	C87.554741,107.043999 89.436813,105.523941 91.318886,104.003891 
	C92.683861,106.273613 94.103279,108.513649 95.370384,110.836761 
	C95.641617,111.334045 95.475739,112.162102 95.314919,112.787277 
	C94.455666,116.127617 93.964912,120.305969 89.331741,119.891563 
	C85.009270,119.504959 85.101944,115.521935 84.922470,112.225479 
	C84.869705,111.256248 85.162102,110.268234 85.484489,108.926437 
z"/>
<path fill="#F3F3F3" opacity="1.000000" stroke="none" 
	d="
M168.964691,119.937370 
	C166.248306,115.604774 166.185226,111.330139 168.671585,107.477936 
	C169.543457,106.127121 172.263519,105.009163 173.867004,105.298065 
	C176.854660,105.836365 178.332077,111.488007 176.921036,115.742714 
	C175.710388,119.393188 173.781921,122.107506 168.964691,119.937370 
z"/>
</svg>